# xmcd
#
# Track frame offsets:
#	150
#	18406
#	36756
#	49229
#	71813
#	94850
#	143501
#	156859
#	178720
#	203105
#	227544
#	240301
#	259933
#	284357
#
# Disc length: 3951 seconds
#
# Revision: 1
# Processed by: cddbd v1.5PL3 Copyright (c) Steve Scherf et al.
# Submitted via: EasyCDDAExtractor 7.0.5.1
#
DISCID=bf0f6d0e
DTITLE=Charlie Musselwhite - Memphis Charlie
DYEAR=1969
DGENRE=Blue
TTITLE0=It Ain't Right
TTITLE1=Finger Lickin' Good
TTITLE2=Up and Down The Avenue
TTITLE3=Highway Blues
TTITLE4=Wild Wild Woman
TTITLE5=Takin' My Time
TTITLE6=Crazy For My Baby
TTITLE7=Blue Steel
TTITLE8=Take Me Back
TTITLE9=This Old Nightlife
TTITLE10=Taylor's Arkansas
TTITLE11=Cut You Loose
TTITLE12=If Trouble Was Money
TTITLE13=On The Spot Boogie
EXTD=
EXTT0=
EXTT1=
EXTT2=
EXTT3=
EXTT4=
EXTT5=
EXTT6=
EXTT7=
EXTT8=
EXTT9=
EXTT10=
EXTT11=
EXTT12=
EXTT13=
PLAYORDER=
